<svg width="20" height="20" viewBox="0 0 20 20" fill="none" xmlns="http://www.w3.org/2000/svg">
<mask id="mask0_7904_36346" style="mask-type:alpha" maskUnits="userSpaceOnUse" x="3" y="1" width="14" height="18">
<path fill-rule="evenodd" clip-rule="evenodd" d="M12.4091 2.38801C11.9526 1.93146 11.3371 1.66871 10.6914 1.6672C10.473 1.66669 10.2429 1.66669 10.0002 1.66669C7.66661 1.66669 6.49984 1.66669 5.60854 2.12083C4.82453 2.5203 4.1871 3.15772 3.78764 3.94173C3.3335 4.83303 3.3335 5.9998 3.3335 8.33335V11.6667C3.3335 14.0003 3.3335 15.167 3.78764 16.0584C4.1871 16.8424 4.82453 17.4798 5.60854 17.8792C6.49984 18.3334 7.66661 18.3334 10.0002 18.3334C12.3337 18.3334 13.5005 18.3334 14.3917 17.8792C15.1758 17.4798 15.8132 16.8424 16.2127 16.0584C16.6668 15.167 16.6668 14.0003 16.6668 11.6667V8.33335C16.6668 8.09065 16.6668 7.86055 16.6663 7.64209C16.6648 6.99643 16.4021 6.38095 15.9455 5.92441L12.4091 2.38801Z" fill="white"/>
</mask>
<g mask="url(#mask0_7904_36346)">
<path d="M5.60854 2.12083L6.17602 3.23459L5.60854 2.12083ZM3.78764 3.94173L4.9014 4.50921L3.78764 3.94173ZM3.78764 16.0584L2.67388 16.6258L3.78764 16.0584ZM5.60854 17.8792L6.17602 16.7654L5.60854 17.8792ZM14.3917 17.8792L13.8243 16.7654L14.3917 17.8792ZM16.2127 16.0584L15.0989 15.4909L16.2127 16.0584ZM15.9455 5.92441L15.0617 6.8083L15.9455 5.92441ZM10.0002 2.91669C10.2432 2.91669 10.4717 2.91669 10.6885 2.9172L10.6943 0.417202C10.4742 0.416687 10.2426 0.416688 10.0002 0.416688V2.91669ZM6.17602 3.23459C6.41609 3.11226 6.7478 3.01975 7.3653 2.9693C7.99739 2.91766 8.81275 2.91669 10.0002 2.91669V0.416688C8.854 0.416688 7.91922 0.415715 7.16171 0.477607C6.38961 0.54069 5.69228 0.675249 5.04105 1.00707L6.17602 3.23459ZM4.9014 4.50921C5.18102 3.96041 5.62722 3.51421 6.17602 3.23459L5.04105 1.00707C4.02184 1.52638 3.19319 2.35503 2.67388 3.37424L4.9014 4.50921ZM4.5835 8.33335C4.5835 7.14595 4.58447 6.33058 4.63611 5.69849C4.68656 5.08099 4.77907 4.74928 4.9014 4.50921L2.67388 3.37424C2.34206 4.02547 2.2075 4.7228 2.14441 5.4949C2.08252 6.25241 2.0835 7.1872 2.0835 8.33335H4.5835ZM4.5835 11.6667V8.33335H2.0835V11.6667H4.5835ZM4.9014 15.4909C4.77907 15.2508 4.68656 14.919 4.63611 14.3015C4.58447 13.6694 4.5835 12.8541 4.5835 11.6667H2.0835C2.0835 12.8129 2.08252 13.7476 2.14441 14.5051C2.2075 15.2773 2.34206 15.9746 2.67388 16.6258L4.9014 15.4909ZM6.17602 16.7654C5.62722 16.4859 5.18102 16.0396 4.9014 15.4909L2.67388 16.6258C3.19319 17.645 4.02184 18.4737 5.04105 18.9929L6.17602 16.7654ZM10.0002 17.0834C8.81275 17.0834 7.99739 17.0824 7.3653 17.0308C6.7478 16.9803 6.41609 16.8878 6.17602 16.7654L5.04105 18.9929C5.69228 19.3248 6.38961 19.4594 7.16171 19.5224C7.91922 19.5844 8.854 19.5834 10.0002 19.5834V17.0834ZM13.8243 16.7654C13.5842 16.8878 13.2525 16.9803 12.635 17.0308C12.0029 17.0824 11.1876 17.0834 10.0002 17.0834V19.5834C11.1463 19.5834 12.0811 19.5844 12.8386 19.5224C13.6107 19.4594 14.3081 19.3248 14.9592 18.9929L13.8243 16.7654ZM15.0989 15.4909C14.8193 16.0396 14.3731 16.4859 13.8243 16.7654L14.9592 18.9929C15.9785 18.4737 16.8072 17.645 17.3264 16.6258L15.0989 15.4909ZM15.4168 11.6667C15.4168 12.8541 15.4158 13.6694 15.3642 14.3015C15.3137 14.919 15.2212 15.2508 15.0989 15.4909L17.3264 16.6258C17.6582 15.9746 17.7928 15.2773 17.8559 14.5051C17.9178 13.7476 17.9168 12.8129 17.9168 11.6667H15.4168ZM15.4168 8.33335V11.6667H17.9168V8.33335H15.4168ZM15.4163 7.645C15.4168 7.86175 15.4168 8.09032 15.4168 8.33335H17.9168C17.9168 8.09096 17.9168 7.85936 17.9163 7.63916L15.4163 7.645ZM16.8294 5.04052L13.293 1.50412L11.5252 3.2719L15.0617 6.8083L16.8294 5.04052ZM17.9163 7.63916C17.914 6.65389 17.5131 5.72425 16.8294 5.04052L15.0617 6.8083C15.291 7.03765 15.4156 7.33898 15.4163 7.645L17.9163 7.63916ZM10.6885 2.9172C10.9946 2.91791 11.2958 3.04253 11.5252 3.2719L13.293 1.50412C12.6092 0.8204 11.6797 0.419507 10.6943 0.417202L10.6885 2.9172Z" fill="#D95E48"/>
<path d="M11.25 2.08331V4.58331C11.25 5.96402 12.3692 7.08331 13.75 7.08331H15.8333" stroke="#D95E48" stroke-width="1.5"/>
</g>
</svg>
