<svg width="245" height="11" viewBox="0 0 245 11" fill="none" xmlns="http://www.w3.org/2000/svg">
<path d="M0.166667 5.5C0.166667 8.44552 2.55448 10.8333 5.5 10.8333C8.44552 10.8333 10.8333 8.44552 10.8333 5.5C10.8333 2.55448 8.44552 0.166667 5.5 0.166667C2.55448 0.166667 0.166667 2.55448 0.166667 5.5ZM233.667 5.5C233.667 8.44552 236.054 10.8333 239 10.8333C241.946 10.8333 244.333 8.44552 244.333 5.5C244.333 2.55448 241.946 0.166667 239 0.166667C236.054 0.166667 233.667 2.55448 233.667 5.5ZM7.93229 6.5C8.48458 6.5 8.93229 6.05228 8.93229 5.5C8.93229 4.94772 8.48458 4.5 7.93229 4.5V6.5ZM17.6615 4.5C17.1092 4.5 16.6615 4.94772 16.6615 5.5C16.6615 6.05228 17.1092 6.5 17.6615 6.5V4.5ZM22.526 6.5C23.0783 6.5 23.526 6.05228 23.526 5.5C23.526 4.94772 23.0783 4.5 22.526 4.5V6.5ZM32.2552 4.5C31.7029 4.5 31.2552 4.94772 31.2552 5.5C31.2552 6.05228 31.7029 6.5 32.2552 6.5V4.5ZM37.1198 6.5C37.6721 6.5 38.1198 6.05228 38.1198 5.5C38.1198 4.94772 37.6721 4.5 37.1198 4.5V6.5ZM46.849 4.5C46.2967 4.5 45.849 4.94772 45.849 5.5C45.849 6.05228 46.2967 6.5 46.849 6.5V4.5ZM51.7135 6.5C52.2658 6.5 52.7135 6.05228 52.7135 5.5C52.7135 4.94772 52.2658 4.5 51.7135 4.5V6.5ZM61.4427 4.5C60.8904 4.5 60.4427 4.94772 60.4427 5.5C60.4427 6.05228 60.8904 6.5 61.4427 6.5V4.5ZM66.3073 6.5C66.8596 6.5 67.3073 6.05228 67.3073 5.5C67.3073 4.94772 66.8596 4.5 66.3073 4.5V6.5ZM76.0365 4.5C75.4842 4.5 75.0365 4.94772 75.0365 5.5C75.0365 6.05228 75.4842 6.5 76.0365 6.5V4.5ZM80.901 6.5C81.4533 6.5 81.901 6.05228 81.901 5.5C81.901 4.94772 81.4533 4.5 80.901 4.5V6.5ZM90.6302 4.5C90.0779 4.5 89.6302 4.94772 89.6302 5.5C89.6302 6.05228 90.0779 6.5 90.6302 6.5V4.5ZM95.4948 6.5C96.0471 6.5 96.4948 6.05228 96.4948 5.5C96.4948 4.94772 96.0471 4.5 95.4948 4.5V6.5ZM105.224 4.5C104.672 4.5 104.224 4.94772 104.224 5.5C104.224 6.05228 104.672 6.5 105.224 6.5V4.5ZM110.089 6.5C110.641 6.5 111.089 6.05228 111.089 5.5C111.089 4.94772 110.641 4.5 110.089 4.5V6.5ZM119.818 4.5C119.265 4.5 118.818 4.94772 118.818 5.5C118.818 6.05228 119.265 6.5 119.818 6.5V4.5ZM124.682 6.5C125.235 6.5 125.682 6.05228 125.682 5.5C125.682 4.94772 125.235 4.5 124.682 4.5V6.5ZM134.411 4.5C133.859 4.5 133.411 4.94772 133.411 5.5C133.411 6.05228 133.859 6.5 134.411 6.5V4.5ZM139.276 6.5C139.828 6.5 140.276 6.05228 140.276 5.5C140.276 4.94772 139.828 4.5 139.276 4.5V6.5ZM149.005 4.5C148.453 4.5 148.005 4.94772 148.005 5.5C148.005 6.05228 148.453 6.5 149.005 6.5V4.5ZM153.87 6.5C154.422 6.5 154.87 6.05228 154.87 5.5C154.87 4.94772 154.422 4.5 153.87 4.5V6.5ZM163.599 4.5C163.047 4.5 162.599 4.94772 162.599 5.5C162.599 6.05228 163.047 6.5 163.599 6.5V4.5ZM168.464 6.5C169.016 6.5 169.464 6.05228 169.464 5.5C169.464 4.94772 169.016 4.5 168.464 4.5V6.5ZM178.193 4.5C177.64 4.5 177.193 4.94772 177.193 5.5C177.193 6.05228 177.64 6.5 178.193 6.5V4.5ZM183.057 6.5C183.61 6.5 184.057 6.05228 184.057 5.5C184.057 4.94772 183.61 4.5 183.057 4.5V6.5ZM192.786 4.5C192.234 4.5 191.786 4.94772 191.786 5.5C191.786 6.05228 192.234 6.5 192.786 6.5V4.5ZM197.651 6.5C198.203 6.5 198.651 6.05228 198.651 5.5C198.651 4.94772 198.203 4.5 197.651 4.5V6.5ZM207.38 4.5C206.828 4.5 206.38 4.94772 206.38 5.5C206.38 6.05228 206.828 6.5 207.38 6.5V4.5ZM212.245 6.5C212.797 6.5 213.245 6.05228 213.245 5.5C213.245 4.94772 212.797 4.5 212.245 4.5V6.5ZM221.974 4.5C221.422 4.5 220.974 4.94772 220.974 5.5C220.974 6.05228 221.422 6.5 221.974 6.5V4.5ZM226.839 6.5C227.391 6.5 227.839 6.05228 227.839 5.5C227.839 4.94772 227.391 4.5 226.839 4.5V6.5ZM236.568 4.5C236.015 4.5 235.568 4.94772 235.568 5.5C235.568 6.05228 236.015 6.5 236.568 6.5V4.5ZM5.5 6.5H7.93229V4.5H5.5V6.5ZM17.6615 6.5H22.526V4.5H17.6615V6.5ZM32.2552 6.5H37.1198V4.5H32.2552V6.5ZM46.849 6.5H51.7135V4.5H46.849V6.5ZM61.4427 6.5H66.3073V4.5H61.4427V6.5ZM76.0365 6.5H80.901V4.5H76.0365V6.5ZM90.6302 6.5H95.4948V4.5H90.6302V6.5ZM105.224 6.5H110.089V4.5H105.224V6.5ZM119.818 6.5H124.682V4.5H119.818V6.5ZM134.411 6.5H139.276V4.5H134.411V6.5ZM149.005 6.5H153.87V4.5H149.005V6.5ZM163.599 6.5H168.464V4.5H163.599V6.5ZM178.193 6.5H183.057V4.5H178.193V6.5ZM192.786 6.5H197.651V4.5H192.786V6.5ZM207.38 6.5H212.245V4.5H207.38V6.5ZM221.974 6.5H226.839V4.5H221.974V6.5ZM236.568 6.5H239V4.5H236.568V6.5Z" fill="#D95E48"/>
</svg>
